HIERARCHY
ROOT pelvis
{
	OFFSET 0.000000 0.000000 0.934274
	CHANNELS 6 Xposition Yposition Zposition Xrotation Yrotation Zrotation
	JOINT spine
	{
		OFFSET 0.000000 0.000000 0.000000
		CHANNELS 6 Xposition Yposition Zposition Xrotation Yrotation Zrotation
		JOINT spine.001
		{
			OFFSET 0.000000 -0.015979 0.304890
			CHANNELS 3 Xrotation Yrotation Zrotation
			JOINT neck
			{
				OFFSET 0.000000 0.037208 0.303033
				CHANNELS 6 Xposition Yposition Zposition Xrotation Yrotation Zrotation
				JOINT face
				{
					OFFSET 0.000000 0.004150 0.237748
					CHANNELS 6 Xposition Yposition Zposition Xrotation Yrotation Zrotation
					End Site
					{
						OFFSET -0.000000 -0.034878 -0.009349
					}
				}
			}
			JOINT shoulder.L
			{
				OFFSET 0.000000 0.037208 0.303033
				CHANNELS 6 Xposition Yposition Zposition Yrotation Xrotation Zrotation
				JOINT upper_arm.L
				{
					OFFSET 0.189422 0.000000 0.000000
					CHANNELS 6 Xposition Yposition Zposition Xrotation Yrotation Zrotation
					JOINT forearm.L
					{
						OFFSET 0.318334 0.000139 0.001154
						CHANNELS 6 Xposition Yposition Zposition Xrotation Yrotation Zrotation
						End Site
						{
							OFFSET 0.266901 -0.004531 -0.001588
						}
					}
				}
			}
			JOINT shoulder.R
			{
				OFFSET 0.000000 0.037208 0.303033
				CHANNELS 6 Xposition Yposition Zposition Yrotation Xrotation Zrotation
				JOINT upper_arm.R
				{
					OFFSET -0.189422 0.000000 0.000000
					CHANNELS 6 Xposition Yposition Zposition Xrotation Yrotation Zrotation
					JOINT forearm.R
					{
						OFFSET -0.315265 0.000139 0.001154
						CHANNELS 6 Xposition Yposition Zposition Xrotation Yrotation Zrotation
						End Site
						{
							OFFSET -0.276710 -0.004702 -0.001589
						}
					}
				}
			}
		}
	}
	JOINT pelvis.L
	{
		OFFSET 0.000000 0.000000 0.000000
		CHANNELS 6 Xposition Yposition Zposition Yrotation Xrotation Zrotation
		End Site
		{
			OFFSET 0.116659 0.000000 0.000000
		}
	}
	JOINT pelvis.R
	{
		OFFSET 0.000000 0.000000 0.000000
		CHANNELS 6 Xposition Yposition Zposition Yrotation Xrotation Zrotation
		End Site
		{
			OFFSET -0.116659 0.000000 0.000000
		}
	}
	JOINT thigh.L
	{
		OFFSET 0.116659 0.000000 0.000000
		CHANNELS 6 Xposition Yposition Zposition Xrotation Yrotation Zrotation
		JOINT shin.L
		{
			OFFSET 0.022570 0.000000 -0.430662
			CHANNELS 6 Xposition Yposition Zposition Xrotation Yrotation Zrotation
			JOINT foot.L
			{
				OFFSET 0.021945 0.000000 -0.418739
				CHANNELS 3 Xrotation Yrotation Zrotation
				End Site
				{
					OFFSET 0.018699 -0.190659 -0.080061
				}
			}
			JOINT heel.02.L
			{
				OFFSET 0.021945 0.000000 -0.418739
				CHANNELS 3 Xrotation Yrotation Zrotation
				End Site
				{
					OFFSET 0.101086 0.041510 -0.078525
				}
			}
		}
	}
	JOINT thigh.R
	{
		OFFSET -0.116659 0.000000 0.000000
		CHANNELS 6 Xposition Yposition Zposition Xrotation Yrotation Zrotation
		JOINT shin.R
		{
			OFFSET -0.022174 0.000000 -0.423103
			CHANNELS 6 Xposition Yposition Zposition Xrotation Yrotation Zrotation
			JOINT foot.R
			{
				OFFSET -0.022423 0.000000 -0.427864
				CHANNELS 3 Xrotation Yrotation Zrotation
				End Site
				{
					OFFSET -0.019527 -0.199099 -0.083605
				}
			}
			JOINT heel.02.R
			{
				OFFSET -0.022423 0.000000 -0.427864
				CHANNELS 3 Xrotation Yrotation Zrotation
				End Site
				{
					OFFSET -0.099330 0.041510 -0.077046
				}
			}
		}
	}
}
MOTION
Frames: 4
Frame Time: 0.041667
0.026657 -0.083967 0.917157 -0.000000 0.000000 0.273022 0.000000 0.000000 -0.000000 -11.245090 0.594026 0.090078 9.986175 0.441281 3.596414 -0.000000 0.037208 0.303033 17.913754 0.130674 -2.015709 -0.000000 0.004150 0.237748 3.237761 -0.000000 0.000001 -0.000000 0.037208 0.303033 0.910668 0.000888 -0.111814 0.189422 0.000000 -0.000000 31.140465 80.117716 -36.675606 0.318334 0.000139 0.001154 1.448426 12.843939 -11.462744 -0.000000 0.037208 0.303033 0.964971 0.000997 -0.118509 -0.189422 -0.000000 -0.000000 18.317720 -81.644386 21.172231 -0.315265 0.000139 0.001154 1.118187 -9.826581 11.779539 0.000000 0.000000 -0.000000 0.312853 -0.000000 -0.000011 0.000000 0.000000 -0.000000 0.312883 -0.000000 0.000000 0.116658 -0.000000 -0.000637 8.870614 4.404645 0.124253 0.022570 0.000000 -0.430662 2.554680 -5.279685 0.251107 -10.450330 -3.433903 4.421698 -19.593583 49.638892 36.075765 -0.116658 -0.000000 0.000637 8.444601 -0.362948 -0.416638 -0.022174 0.000000 -0.423103 2.710470 3.613850 -0.227226 -8.876088 5.110735 -8.105805 -20.290904 -49.998361 -37.940055 
0.027064 -0.082650 0.917491 -0.000000 0.000000 0.117358 -0.000000 0.000000 -0.000000 -11.189066 0.551711 0.083385 9.985966 0.444538 3.623050 -0.000000 0.037208 0.303033 17.759885 0.518529 -1.749076 0.000000 0.004150 0.237748 3.454342 -0.000000 0.000000 -0.000000 0.037208 0.303033 0.967235 0.001004 -0.118799 0.189422 -0.000000 -0.000000 31.010220 80.067473 -36.555493 0.318334 0.000139 0.001154 1.449197 12.999044 -11.300983 -0.000000 0.037208 0.303033 1.021575 0.001117 -0.125451 -0.189422 -0.000000 -0.000000 18.535052 -81.682533 21.407356 -0.315265 0.000139 0.001154 1.126537 -9.922819 11.739032 -0.000000 -0.000000 -0.000000 0.318620 -0.000000 -0.000018 -0.000000 -0.000000 -0.000000 0.318620 -0.000000 0.000000 0.116658 0.000000 -0.000649 8.967845 4.373042 0.128104 0.022570 0.000000 -0.430662 2.239170 -5.098623 0.216569 -10.331393 -3.487161 4.555872 -19.516905 49.624114 36.166337 -0.116658 -0.000000 0.000649 8.609427 -0.345129 -0.426137 -0.022174 0.000000 -0.423103 2.172351 3.670164 -0.183163 -8.559690 4.977186 -7.968320 -20.039317 -49.903486 -38.033215 
0.027299 -0.081153 0.917715 -0.000000 0.000000 -0.023522 0.000000 -0.000000 -0.000000 -11.122025 0.529157 0.079660 9.985821 0.444980 3.626564 -0.000000 0.037208 0.303033 17.629618 0.845290 -1.374678 -0.000000 0.004150 0.237748 3.656774 0.000000 -0.000001 -0.000000 0.037207 0.303033 1.006362 0.001087 -0.123656 0.189422 -0.000000 0.000000 30.635779 80.073265 -36.119499 0.318334 0.000139 0.001154 1.448814 12.991251 -11.305840 -0.000000 0.037207 0.303033 1.060666 0.001207 -0.130339 -0.189422 -0.000000 0.000000 18.554325 -81.652439 21.440478 -0.315265 0.000139 0.001154 1.159292 -10.151813 11.798809 -0.000000 0.000000 -0.000000 0.325793 -0.000000 0.000040 -0.000000 0.000000 -0.000000 0.325793 -0.000000 0.000000 0.116658 -0.000000 -0.000663 9.137771 4.293948 0.136879 0.022570 -0.000000 -0.430662 1.742812 -4.842306 0.164675 -10.119545 -3.522974 4.685760 -19.346272 49.572058 36.291940 -0.116658 -0.000000 0.000663 8.760683 -0.365063 -0.432130 -0.022174 0.000000 -0.423103 1.661404 3.764568 -0.141437 -8.285959 4.856771 -7.838104 -19.906750 -49.883187 -38.204431 
0.027523 -0.079534 0.917784 -0.000000 0.000000 0.008910 0.000000 0.000000 0.000000 -11.050107 0.545874 0.081826 9.986280 0.438315 3.572207 0.000000 0.037208 0.303033 17.490212 1.058123 -0.973600 -0.000000 0.004150 0.237748 3.846910 -0.000000 0.000001 0.000000 0.037207 0.303033 0.977105 0.001025 -0.120063 0.189422 -0.000000 0.000000 29.579432 80.221036 -34.812877 0.318334 0.000139 0.001154 1.451690 12.840183 -11.497076 0.000000 0.037207 0.303033 1.031408 0.001141 -0.126714 -0.189422 0.000000 0.000000 18.352182 -81.571167 21.238227 -0.315265 0.000139 0.001154 1.191321 -10.416284 11.797256 -0.000000 -0.000000 0.000000 0.343709 -0.000000 0.000026 -0.000000 -0.000000 0.000000 0.343679 -0.000000 0.000000 0.116657 -0.000000 -0.000700 9.316491 4.168005 0.149855 0.022570 0.000000 -0.430662 1.164554 -4.549844 0.107075 -9.837424 -3.477102 4.684014 -19.005353 49.420185 36.356629 -0.116657 -0.000000 0.000700 8.859253 -0.457219 -0.429890 -0.022174 0.000000 -0.423103 1.324515 3.944038 -0.114819 -8.120256 4.823567 -7.835403 -20.042816 -50.018712 -38.504935 
